<?xml version="1.0" encoding="utf-8"?>
<!-- Generator: Adobe Illustrator 27.1.1, SVG Export Plug-In . SVG Version: 6.00 Build 0)  -->
<svg version="1.2" baseProfile="tiny" id="Layer_1" xmlns="http://www.w3.org/2000/svg" xmlns:xlink="http://www.w3.org/1999/xlink"
	 x="0px" y="0px" viewBox="0 0 85 132" overflow="visible" xml:space="preserve">
<path fill="#008000" d="M40.63,77.094c-0.359,0.046-0.879-0.082-2.097-0.516c-3.148-1.12-5.408-1.741-6.357-1.744
	c-0.544-0.002-1.037-0.08-1.309-0.208c-0.731-0.343-1.189-0.395-1.423-0.162c-0.192,0.192-0.265,0.193-1.007,0.007
	c-1.26-0.316-1.672-0.237-1.583,0.306c0.027,0.166-0.149,0.196-1.161,0.201c-1.043,0.005-1.229,0.039-1.477,0.272
	c-0.209,0.197-0.442,0.266-0.889,0.266c-0.401,0-0.687,0.074-0.847,0.218c-0.215,0.193-0.524,0.217-2.717,0.205
	c-1.361-0.007-2.449,0.029-2.416,0.082c0.216,0.35,2.848,1.49,3.44,1.49c0.122,0,0.267,0.081,0.322,0.18
	c0.055,0.099,0.296,0.214,0.536,0.256c0.239,0.042,0.673,0.129,0.964,0.194c0.291,0.065,0.599,0.104,0.686,0.087
	c0.086-0.017,0.149,0.067,0.139,0.187c-0.015,0.187,0.097,0.218,0.779,0.218c0.731,0,0.796,0.022,0.796,0.267
	c0,0.255,0.039,0.263,0.855,0.188l0.855-0.079l-0.062,0.325l-0.062,0.325l0.672-0.092c0.369-0.051,0.804-0.142,0.966-0.203
	c0.241-0.091,0.281-0.076,0.22,0.082c-0.042,0.11,0.003,0.224,0.105,0.263c0.173,0.067,1.143-0.098,1.592-0.271
	c0.165-0.063,0.218-0.02,0.218,0.179c0,0.144,0.042,0.262,0.093,0.26c0.241-0.005,1.875-0.474,2.131-0.611
	c0.265-0.142,0.284-0.131,0.247,0.136c-0.022,0.159,0.016,0.282,0.084,0.273c0.99-0.133,1.926-0.347,2.15-0.493
	c0.251-0.163,0.28-0.16,0.28,0.022c0,0.247,0.293,0.204,2.156-0.32c0.7-0.197,1.469-0.391,1.708-0.433
	c0.399-0.069,0.377-0.044-0.249,0.286c-0.377,0.198-1.779,0.795-3.116,1.326c-2.794,1.11-3.293,1.347-3.66,1.739
	c-0.146,0.156-0.757,0.468-1.357,0.693c-0.6,0.225-1.092,0.443-1.095,0.485c-0.017,0.317-0.451,0.535-1.489,0.747
	c-0.766,0.157-1.241,0.323-1.412,0.495c-0.248,0.248-0.249,0.268-0.037,0.502c0.269,0.298,0.283,0.289-1.394,0.884
	c-1.204,0.427-1.64,0.792-1.225,1.025c0.339,0.19,0.229,0.3-0.453,0.457c-1.501,0.345-2.171,0.944-1.573,1.405
	c0.248,0.191,0.26,0.227,0.073,0.23c-0.312,0.004-1.99,0.844-2.177,1.09c-0.126,0.166-0.117,0.246,0.048,0.428
	c0.188,0.208,0.186,0.23-0.032,0.305c-1.337,0.457-2.035,1.024-1.577,1.28c0.274,0.154,0.219,0.206-0.729,0.69
	c-0.918,0.469-1.153,0.756-0.82,1.003c0.205,0.152,0.16,0.197-0.495,0.497c-0.396,0.181-0.82,0.42-0.942,0.53
	c-0.212,0.191-0.209,0.209,0.045,0.387c0.265,0.186,0.264,0.188-0.156,0.406c-0.581,0.301-1.459,1.075-1.438,1.267
	c0.021,0.184-1.361,1.501-2.569,2.449c-0.463,0.363-0.841,0.71-0.841,0.77c0,0.133,0.075,0.104,2.306-0.883
	c0.96-0.425,1.885-0.784,2.057-0.8c0.348-0.031,0.823-0.255,1.153-0.542c0.196-0.171,0.218-0.17,0.218,0.016
	c0,0.113,0.058,0.206,0.129,0.206c0.242,0,1.352-0.62,1.658-0.926c0.323-0.323,0.457-0.302,0.457,0.074
	c0,0.126,0.073,0.229,0.162,0.229c0.201,0,1.693-1.076,1.976-1.425c0.207-0.256,0.208-0.256,0.364,0.086
	c0.086,0.188,0.207,0.342,0.27,0.342c0.189,0,1.954-1.64,2.033-1.888c0.112-0.352,0.271-0.276,0.43,0.206
	c0.079,0.24,0.193,0.436,0.254,0.436c0.15,0,0.978-0.904,1.4-1.528l0.345-0.511l0.15,0.396c0.082,0.218,0.198,0.396,0.256,0.396
	c0.168,0,0.997-0.967,1.284-1.497l0.261-0.482l0.266,0.266c0.146,0.146,0.289,0.241,0.317,0.21c0.134-0.143,1.437-2.001,1.502-2.141
	c0.044-0.094,0.099-0.108,0.138-0.034c0.259,0.502,0.31,0.506,0.697,0.062c0.209-0.24,0.52-0.708,0.69-1.041
	c0.29-0.564,0.322-0.589,0.489-0.374c0.162,0.209,0.19,0.212,0.3,0.029c0.067-0.111,0.349-0.503,0.627-0.872
	c0.278-0.369,0.538-0.797,0.578-0.952c0.084-0.329,0.154-0.348,0.342-0.092c0.115,0.156,0.243,0.051,0.762-0.627
	c0.535-0.699,1.136-1.684,1.353-2.214c0.045-0.111,0.097-0.101,0.191,0.035c0.166,0.24,0.27,0.137,1.127-1.115
	c0.57-0.834,1.775-2.161,3.059-3.372c0.656-0.618-1.516,2.573-2.756,4.051c-0.518,0.617-0.996,1.27-1.062,1.452
	c-0.066,0.181-0.565,0.705-1.11,1.165c-0.544,0.459-0.961,0.882-0.925,0.939s0.007,0.139-0.062,0.182
	c-0.19,0.117-0.152,0.313,0.06,0.313c0.103,0,0.187,0.021,0.187,0.046s-0.444,0.488-0.987,1.028
	c-0.995,0.99-1.337,1.543-0.953,1.543c0.347,0,0.211,0.205-0.619,0.934c-0.448,0.393-0.896,0.873-0.996,1.067
	c-0.17,0.33-0.165,0.357,0.086,0.437c0.241,0.077,0.176,0.171-0.669,0.974c-1.099,1.043-1.321,1.382-1.018,1.551
	c0.172,0.096,0.113,0.198-0.388,0.661c-0.325,0.301-0.633,0.575-0.683,0.609c-0.121,0.083-0.378,0.576-0.378,0.726
	c0,0.066,0.145,0.156,0.323,0.2l0.323,0.081l-0.509,0.403c-0.839,0.664-1.256,1.456-0.767,1.456c0.142,0,0.258,0.023,0.258,0.052
	s-0.304,0.351-0.676,0.717c-0.835,0.822-0.966,1.162-0.492,1.281l0.335,0.084l-0.631,0.647c-0.347,0.356-0.748,0.843-0.89,1.081
	l-0.259,0.434l0.864,0.253l-0.664,0.686c-0.951,0.981-1.232,1.62-0.713,1.62c0.571,0,0.646,0.124,0.328,0.542
	c-0.468,0.614-1.066,1.821-1.066,2.151c0,0.245,0.064,0.299,0.352,0.299h0.352l-0.476,0.948c-0.262,0.521-0.476,1.111-0.476,1.311
	c0,0.33,0.03,0.356,0.328,0.281c0.18-0.045,0.304-0.032,0.274,0.029c-0.767,1.587-0.861,1.919-0.54,1.919
	c0.233,0,0.236-0.024-0.062,0.561c-0.269,0.527-0.325,1.013-0.125,1.08c0.14,0.047-0.591,2.944-1.007,3.987
	c-0.366,0.92-0.636,1.843-0.584,1.998c0.043,0.128,0.969-1.275,0.969-1.468c0-0.107,0.721-1.349,1.579-2.722
	c0.297-0.475,0.54-0.941,0.54-1.037c0-0.111,0.082-0.147,0.226-0.102c0.169,0.054,0.279-0.039,0.436-0.37
	c0.116-0.243,0.21-0.552,0.21-0.686c0-0.277,0.13-0.315,0.345-0.1c0.111,0.11,0.206,0.004,0.399-0.447
	c0.14-0.326,0.254-0.729,0.254-0.896c0-0.295,0.009-0.298,0.31-0.101c0.301,0.197,0.313,0.193,0.442-0.144
	c0.073-0.191,0.165-0.591,0.206-0.889c0.071-0.521,0.083-0.534,0.308-0.33c0.221,0.2,0.244,0.198,0.416-0.028
	c0.225-0.295,0.435-0.996,0.436-1.455c0.001-0.386,0.082-0.415,0.43-0.152c0.133,0.101,0.286,0.183,0.339,0.183
	c0.149,0,0.473-1.237,0.497-1.901c0.023-0.646,0.051-0.673,0.41-0.401c0.133,0.101,0.28,0.183,0.326,0.183
	c0.108,0,0.367-1.29,0.367-1.828c0-0.458,0.169-0.527,0.517-0.212c0.251,0.227,0.242,0.24,0.472-0.64
	c0.072-0.274,0.131-0.71,0.131-0.969l0.001-0.47l0.322,0.211c0.274,0.18,0.339,0.185,0.432,0.034
	c0.137-0.221,0.341-1.154,0.445-2.043l0.08-0.677l0.413,0.315l0.413,0.315l0.127-0.477c0.07-0.262,0.165-0.932,0.211-1.49
	l0.084-1.013l0.349,0.201c0.192,0.11,0.378,0.172,0.413,0.137c0.035-0.035,0.135-0.666,0.222-1.403
	c0.118-0.995,0.2-1.323,0.319-1.274l0.331,0.135c0.248,0.101,0.332-0.222,0.416-1.595l0.074-1.22l0.286,0.188
	c0.157,0.103,0.311,0.146,0.342,0.095c0.08-0.132,0.252-2.001,0.234-2.554c-0.014-0.455,0.218-0.65,0.408-0.343
	c0.042,0.069,0.158,0.125,0.257,0.125c0.132,0,0.18-0.164,0.18-0.623c0-0.343,0.056-0.623,0.125-0.623
	c0.069,0,0.125,0.118,0.125,0.263c0,0.218,0.053,0.249,0.312,0.185c0.171-0.043,0.312-0.054,0.312-0.024
	c0,0.03-0.196,0.464-0.436,0.965c-0.507,1.057-0.58,1.669-0.187,1.567c0.137-0.036,0.249-0.038,0.249-0.005
	c0,0.033-0.191,0.463-0.424,0.954c-0.233,0.492-0.462,1.076-0.508,1.299c-0.078,0.374-0.06,0.405,0.237,0.405
	c0.177,0,0.321,0.014,0.319,0.031l-0.434,1.091c-0.238,0.583-0.433,1.246-0.434,1.475c-0.002,0.4,0.012,0.412,0.387,0.33
	c0.214-0.047,0.365-0.037,0.336,0.021c-1.073,2.192-1.236,3.052-0.525,2.782c0.183-0.07,0.35-0.11,0.371-0.089
	s-0.135,0.387-0.347,0.814c-0.212,0.427-0.412,1.056-0.445,1.398l-0.06,0.622l0.396-0.138c0.52-0.181,0.57-0.104,0.265,0.413
	c-0.363,0.616-0.754,1.814-0.754,2.312c0,0.414,0.012,0.424,0.393,0.34c0.35-0.077,0.382-0.061,0.291,0.146
	c-0.315,0.721-0.69,1.967-0.636,2.109c0.044,0.114,0.199,0.144,0.497,0.096l0.433-0.07l-0.191,0.544
	c-0.105,0.3-0.221,0.904-0.259,1.344c-0.055,0.652-0.035,0.787,0.107,0.734c0.675-0.254,0.775-0.258,0.674-0.021
	c-0.217,0.511-0.438,1.498-0.438,1.956v0.485l0.444-0.083c0.429-0.08,0.439-0.074,0.297,0.193c-0.081,0.152-0.178,0.752-0.214,1.334
	l-0.066,1.058l0.34-0.085c0.314-0.079,0.332-0.063,0.237,0.2c-0.057,0.157-0.103,0.622-0.103,1.033c0,0.674,0.025,0.745,0.25,0.724
	c0.235-0.023,0.247,0.036,0.204,0.979c-0.042,0.932-0.029,0.998,0.186,0.929c0.211-0.067,0.228-0.009,0.188,0.627
	c-0.024,0.385,0.011,0.735,0.078,0.778c0.167,0.106,0.399,2.627,0.414,4.509c0.007,0.853,0.053,1.692,0.104,1.863l0.091,0.312
	l0.08-0.374c0.116-0.543,0.425-2.787,0.592-4.3c0.079-0.72,0.222-1.486,0.318-1.702s0.174-0.654,0.174-0.974
	c0-0.534,0.021-0.575,0.262-0.499c0.248,0.078,0.259,0.046,0.218-0.616c-0.031-0.496-0.001-0.683,0.102-0.643
	c0.209,0.08,0.291-0.218,0.291-1.056c0-0.622,0.03-0.722,0.2-0.657c0.11,0.042,0.249-0.002,0.31-0.097
	c0.149-0.235,0.143-1.141-0.01-1.542c-0.122-0.321-0.118-0.324,0.327-0.241l0.451,0.085l-0.06-1.17
	c-0.033-0.643-0.102-1.267-0.153-1.386c-0.08-0.186-0.026-0.212,0.387-0.187l0.48,0.029l-0.018-0.623
	c-0.01-0.343-0.103-0.865-0.206-1.161l-0.189-0.538l0.391,0.039c0.573,0.058,0.576-0.341,0.014-1.806
	c-0.069-0.179-0.022-0.199,0.306-0.133c0.372,0.074,0.387,0.061,0.384-0.343c-0.002-0.231-0.138-0.749-0.303-1.15l-0.3-0.729
	l0.891,0.167l-0.083-0.706c-0.073-0.62-0.324-1.494-0.639-2.224c-0.092-0.213-0.056-0.225,0.43-0.143l0.53,0.09l-0.087-0.418
	c-0.084-0.403-0.552-1.83-0.733-2.236c-0.072-0.162-0.019-0.187,0.291-0.142c0.28,0.041,0.379,0.006,0.379-0.132
	c0-0.264-0.49-1.827-0.703-2.24l-0.176-0.343h0.449c0.43,0,0.446-0.016,0.371-0.356c-0.067-0.303-0.569-1.694-0.874-2.417
	c-0.076-0.181-0.025-0.218,0.295-0.218c0.213,0,0.387-0.062,0.387-0.138c0-0.334-0.416-1.695-0.693-2.27
	c-0.167-0.346-0.304-0.647-0.304-0.669c0-0.021,0.146-0.039,0.326-0.039c0.305,0,0.32-0.028,0.243-0.44
	c-0.045-0.242-0.298-0.977-0.562-1.633l-0.48-1.192l0.299,0.057c0.165,0.031,0.299,0.01,0.299-0.048c0-0.206-0.88-2.66-0.996-2.775
	c-0.073-0.073-0.05-0.168,0.062-0.253c0.156-0.118,0.154-0.258-0.012-1.07c-0.106-0.514-0.333-1.384-0.506-1.932
	c-0.178-0.564-0.34-1.43-0.372-1.994l-0.058-0.997l0.244,0.499c0.641,1.311,1.316,3.125,1.647,4.425
	c0.46,1.808,0.682,2.439,0.793,2.259c0.167-0.271,0.3-0.135,0.383,0.39c0.078,0.491,0.275,1.346,0.575,2.497l0.123,0.472
	l0.337-0.265l0.337-0.265l0.083,0.572c0.046,0.315,0.26,1.119,0.477,1.788l0.446,1.381c0.039,0.123,0.14,0.096,0.395-0.105
	l0.343-0.271l0.076,0.666c0.072,0.639,0.699,2.723,0.819,2.723c0.032,0,0.15-0.092,0.262-0.204c0.189-0.189,0.216-0.143,0.359,0.636
	c0.188,1.018,0.4,1.688,0.534,1.688c0.055,0,0.169-0.084,0.255-0.187c0.254-0.306,0.374-0.216,0.376,0.28
	c0.002,0.497,0.289,1.86,0.42,1.99c0.043,0.043,0.207-0.044,0.366-0.193c0.158-0.149,0.322-0.271,0.363-0.271
	c0.041,0,0.114,0.238,0.162,0.53c0.082,0.493,0.617,2.064,0.747,2.195c0.032,0.032,0.174-0.047,0.316-0.175
	c0.314-0.284,0.431-0.15,0.548,0.633c0.043,0.288,0.156,0.629,0.25,0.758c0.166,0.227,0.182,0.225,0.494-0.067l0.322-0.302v0.34
	c0,0.571,0.385,2.072,0.532,2.072c0.076,0,0.262-0.117,0.414-0.259l0.276-0.259l0.084,0.496c0.081,0.482,0.493,1.587,0.771,2.067
	c0.133,0.23,0.146,0.229,0.433-0.039l0.296-0.276l0.071,0.413c0.08,0.469,0.46,1.314,0.641,1.426
	c0.066,0.041,0.183,0.012,0.259-0.064c0.264-0.264,0.401-0.133,0.629,0.598c0.126,0.404,0.317,0.859,0.424,1.012l0.195,0.278
	l0.221-0.294l0.221-0.294l0.09,0.371c0.122,0.505,0.615,1.473,0.849,1.667c0.105,0.087,0.246,0.125,0.312,0.084
	c0.066-0.041,0.27,0.242,0.453,0.629c0.183,0.387,0.458,0.822,0.611,0.967c0.153,0.145,0.82,1.081,1.482,2.081
	c1.08,1.63,1.707,2.433,1.707,2.185c0-0.048-0.34-0.828-0.756-1.733c-0.416-0.905-0.862-2.029-0.992-2.498
	c-0.13-0.469-0.273-0.967-0.317-1.106c-0.054-0.169-0.034-0.225,0.058-0.168c0.252,0.156,0.147-0.414-0.228-1.241
	c-0.343-0.756-0.351-0.807-0.125-0.807c0.134,0,0.241-0.085,0.241-0.192c0-0.271-0.427-1.074-0.815-1.536l-0.329-0.391h0.323
	c0.217,0,0.323-0.067,0.323-0.206c0-0.222-0.514-0.961-0.924-1.328c-0.214-0.191-0.224-0.243-0.069-0.341
	c0.101-0.064,0.248-0.117,0.327-0.118c0.254-0.003,0.036-0.459-0.592-1.239c-0.336-0.417-0.611-0.779-0.611-0.805
	s0.167-0.079,0.371-0.12c0.505-0.101,0.404-0.328-0.579-1.291l-0.789-0.773l0.436-0.082c0.284-0.053,0.436-0.152,0.436-0.283
	c0-0.111-0.494-0.688-1.097-1.283l-1.097-1.081l0.474-0.142c0.261-0.078,0.474-0.189,0.474-0.247c0-0.144-0.872-0.92-1.499-1.335
	l-0.514-0.34l0.321-0.168c0.176-0.093,0.322-0.237,0.322-0.32c0.002-0.191-1.176-1.253-1.715-1.546
	c-0.502-0.273-0.509-0.37-0.033-0.475c0.359-0.079,0.366-0.094,0.2-0.415c-0.095-0.183-0.515-0.581-0.933-0.885
	c-0.418-0.303-0.761-0.596-0.761-0.652c0-0.055,0.14-0.136,0.312-0.179c0.171-0.043,0.312-0.126,0.312-0.185
	c0-0.226-0.842-1.053-1.519-1.491c-0.531-0.344-0.673-0.495-0.567-0.601c0.078-0.078,0.215-0.142,0.304-0.142
	c0.437,0-0.037-0.541-1.147-1.308c-0.48-0.332-0.9-0.626-0.934-0.654s0.033-0.104,0.148-0.168c0.181-0.101,0.187-0.159,0.046-0.432
	c-0.14-0.271-1.138-1.101-2.192-1.826c-0.247-0.17-0.265-0.213-0.09-0.218c0.12-0.004,0.218-0.028,0.218-0.055
	c0-0.206-0.417-0.761-0.783-1.043c-1.351-1.04-1.573-1.25-1.719-1.617c-0.088-0.221-0.557-0.761-1.041-1.2
	c-1.519-1.374-2.441-2.34-2.948-3.086c-0.269-0.396-0.489-0.757-0.489-0.801c0-0.045-0.125-0.257-0.279-0.473l-0.279-0.391
	l0.435,0.308c0.718,0.509,2.234,1.961,2.771,2.654c0.277,0.357,0.703,0.86,0.948,1.118c0.44,0.463,0.447,0.465,0.591,0.196
	c0.145-0.271,0.147-0.271,0.335,0.092c0.268,0.516,1.716,2.367,1.815,2.32c0.045-0.022,0.15-0.162,0.233-0.312
	c0.083-0.15,0.153-0.207,0.156-0.128c0.006,0.196,1.499,2.162,1.642,2.162c0.063,0,0.171-0.151,0.241-0.335l0.127-0.335l0.254,0.418
	c0.305,0.502,1.497,1.873,1.628,1.873c0.051,0,0.177-0.154,0.279-0.343c0.102-0.188,0.188-0.275,0.191-0.192
	c0.007,0.208,1.493,1.781,1.682,1.781c0.084,0,0.224-0.154,0.312-0.343c0.154-0.332,0.162-0.335,0.26-0.077
	c0.119,0.314,1.592,1.915,1.761,1.915c0.064,0,0.176-0.169,0.248-0.375l0.131-0.375l0.392,0.487c0.394,0.489,1.741,1.76,1.865,1.76
	c0.037,0,0.129-0.191,0.206-0.424l0.14-0.424l0.586,0.583c0.322,0.321,0.768,0.712,0.991,0.869l0.405,0.286l0.14-0.351
	c0.08-0.2,0.165-0.283,0.198-0.193c0.067,0.181,1.379,1.275,1.529,1.275c0.054,0,0.13-0.12,0.168-0.266
	c0.068-0.26,0.08-0.257,0.544,0.108c0.444,0.349,1.186,0.781,1.341,0.781c0.038,0,0.069-0.089,0.069-0.197s0.042-0.178,0.093-0.155
	l0.885,0.455c0.436,0.227,0.872,0.382,0.971,0.344c0.098-0.038,0.275-0.014,0.392,0.053c0.309,0.177,2.843,1.179,3.607,1.426
	c0.358,0.116,0.775,0.193,0.925,0.171c0.206-0.03-0.049-0.23-1.025-0.805c-1.493-0.879-2.935-1.992-2.886-2.228
	c0.037-0.178-0.73-0.831-1.259-1.072c-0.218-0.099-0.315-0.223-0.275-0.351c0.093-0.301-0.052-0.449-0.965-0.982
	c-0.804-0.47-0.83-0.499-0.58-0.665l0.261-0.173l-0.261-0.332c-0.144-0.182-0.597-0.462-1.007-0.621
	c-0.672-0.26-0.954-0.478-0.622-0.478c0.206,0,0.14-0.446-0.098-0.661c-0.2-0.181-0.943-0.539-1.573-0.759
	c-0.233-0.081-0.233-0.086,0-0.256c0.231-0.169,0.229-0.182-0.058-0.488c-0.231-0.246-1.759-0.932-2.291-1.029l-0.187-0.037
	c-0.051-0.011,0.039-0.13,0.201-0.265c0.276-0.23,0.283-0.264,0.101-0.542c-0.145-0.222-0.418-0.347-1.089-0.498
	c-0.492-0.111-0.981-0.202-1.086-0.202c-0.163,0-0.159-0.035,0.025-0.239c0.204-0.225,0.204-0.257,0.004-0.562
	c-0.203-0.31-0.758-0.532-1.901-0.76c-0.328-0.065-0.395-0.129-0.336-0.314c0.128-0.402-0.327-0.688-1.478-0.93
	c-0.594-0.125-1.074-0.288-1.066-0.363c0.008-0.075-0.025-0.257-0.073-0.406c-0.074-0.227-0.26-0.3-1.167-0.461
	c-0.593-0.105-1.275-0.208-1.515-0.229c-0.426-0.036-0.879-0.324-0.787-0.499c0.026-0.048-0.194-0.151-0.487-0.229
	c-1.163-0.308-3.841-1.138-5.021-1.556l-1.246-0.441l1.809,0.069c1.981,0.076,2.635,0.01,2.533-0.256
	c-0.052-0.134,0.018-0.143,0.352-0.045c0.232,0.069,0.821,0.087,1.33,0.041c0.851-0.076,0.909-0.1,0.847-0.347
	c-0.062-0.246-0.016-0.266,0.645-0.276c0.391-0.006,0.95-0.078,1.242-0.161c0.466-0.132,0.516-0.179,0.405-0.386
	c-0.176-0.329-0.161-0.377,0.118-0.377c0.135,0,0.559-0.118,0.943-0.261c0.698-0.261,0.976-0.554,0.692-0.729
	c-0.095-0.059,0.117-0.227,0.574-0.455c0.557-0.278,0.725-0.427,0.728-0.642c0.002-0.155,0.142-0.377,0.312-0.494
	s0.414-0.311,0.542-0.429l1.584-1.251c1.247-0.957,1.581-1.292,1.434-1.44c-0.031-0.031-0.636,0.168-1.343,0.443
	c-1.836,0.714-2.571,0.927-3.28,0.953c-0.509,0.018-1.208,0.255-1.948,0.66c-0.043,0.024-0.115-0.103-0.16-0.281
	c-0.095-0.378-0.295-0.351-1.179,0.163c-0.445,0.259-0.587,0.29-0.777,0.171c-0.342-0.213-0.464-0.189-1.48,0.298
	c-0.799,0.383-0.964,0.423-1.208,0.293c-0.247-0.132-0.426-0.079-1.432,0.432c-0.971,0.492-1.167,0.553-1.256,0.393
	c-0.058-0.104-0.177-0.19-0.262-0.19c-0.198,0-2.655,1.301-3.604,1.908 M38.762,90.482c-0.057,0.058-0.086-0.313-0.063-0.824
	c0.038-0.86,0.058-0.919,0.273-0.804l0,0c0.201,0.107,0.238,0.069,0.282-0.281c0.028-0.223,0.059-0.301,0.07-0.174
	c0.012,0.14,0.087,0.206,0.189,0.167C39.677,88.503,38.993,90.25,38.762,90.482z M39.934,86.111l-0.357,0.686l0.077-0.587
	c0.043-0.323,0.163-0.757,0.267-0.966v0c0.226-0.454,0.251-0.462,0.319-0.099C40.268,85.301,40.132,85.73,39.934,86.111z
	 M41.488,77.905c-0.129-0.084-0.123-0.137,0.031-0.265c0.117-0.097,0.193-0.109,0.193-0.029c0,0.072,0.171,0.127,0.38,0.121
	s0.434,0.043,0.5,0.11C42.744,77.995,41.716,78.054,41.488,77.905z"/>
<line fill="none" stroke="#008000" stroke-width="0.75" stroke-miterlimit="10" x1="41.5" y1="3.5" x2="41.5" y2="77"/>
</svg>
